<svg width="225" height="38" viewBox="0 0 225 38" fill="none" xmlns="http://www.w3.org/2000/svg">
<path d="M10.4428 29.4179C8.44092 29.4179 6.48382 29.182 4.57154 28.7101C2.65926 28.2088 1.13542 27.5894 0 26.8522L2.33059 21.8976C3.40625 22.5759 4.706 23.1362 6.22985 23.5786C7.75369 23.9915 9.24766 24.1979 10.7118 24.1979C13.6698 24.1979 15.1488 23.4754 15.1488 22.0303C15.1488 21.352 14.7455 20.8653 13.9387 20.5704C13.132 20.2755 11.892 20.0248 10.2187 19.8184C8.2467 19.5235 6.61828 19.1843 5.33347 18.8009C4.04865 18.4175 2.92818 17.7392 1.97204 16.766C1.04578 15.7928 0.582648 14.4067 0.582648 12.6077C0.582648 11.1036 1.0159 9.77648 1.8824 8.62631C2.77878 7.44664 4.06359 6.5324 5.73684 5.88358C7.43996 5.23477 9.44188 4.91036 11.7426 4.91036C13.4457 4.91036 15.1339 5.10206 16.8071 5.48545C18.5103 5.83935 19.9146 6.34071 21.0201 6.98952L18.6895 11.8999C16.5681 10.7202 14.2525 10.1304 11.7426 10.1304C10.2486 10.1304 9.12815 10.3368 8.38116 10.7497C7.63418 11.1626 7.26068 11.6934 7.26068 12.3423C7.26068 13.0795 7.66406 13.5957 8.4708 13.8906C9.27754 14.1855 10.5624 14.4657 12.3252 14.7311C14.2973 15.0555 15.9108 15.4094 17.1657 15.7928C18.4206 16.1467 19.5112 16.8102 20.4375 17.7835C21.3637 18.7567 21.8269 20.1133 21.8269 21.8533C21.8269 23.3279 21.3787 24.6403 20.4823 25.7905C19.5859 26.9406 18.2712 27.8401 16.5382 28.4889C14.8351 29.1083 12.8033 29.4179 10.4428 29.4179Z" fill="#2559F2"/>
<path d="M40.3932 4.91036C42.6341 4.91036 44.6659 5.42646 46.4886 6.45867C48.3411 7.46139 49.7902 8.89173 50.836 10.7497C51.8818 12.5782 52.4047 14.7163 52.4047 17.1641C52.4047 19.612 51.8818 21.7648 50.836 23.6228C49.7902 25.4513 48.3411 26.8816 46.4886 27.9139C44.6659 28.9166 42.6341 29.4179 40.3932 29.4179C37.3156 29.4179 34.8954 28.4594 33.1325 26.5425V37.6461H26.1407V5.26426H32.8187V8.00698C34.5517 5.94257 37.0766 4.91036 40.3932 4.91036ZM39.183 23.7555C40.9758 23.7555 42.4399 23.1657 43.5753 21.986C44.7406 20.7769 45.3233 19.1696 45.3233 17.1641C45.3233 15.1587 44.7406 13.5662 43.5753 12.3865C42.4399 11.1773 40.9758 10.5728 39.183 10.5728C37.3903 10.5728 35.9113 11.1773 34.746 12.3865C33.6105 13.5662 33.0428 15.1587 33.0428 17.1641C33.0428 19.1696 33.6105 20.7769 34.746 21.986C35.9113 23.1657 37.3903 23.7555 39.183 23.7555Z" fill="#2559F2"/>
<path d="M68.5588 29.4179C66.019 29.4179 63.7333 28.9018 61.7015 27.8696C59.6995 26.8079 58.1309 25.3481 56.9955 23.4901C55.86 21.6321 55.2923 19.5235 55.2923 17.1641C55.2923 14.8048 55.86 12.6962 56.9955 10.8382C58.1309 8.98021 59.6995 7.53512 61.7015 6.50291C63.7333 5.44121 66.019 4.91036 68.5588 4.91036C71.0985 4.91036 73.3694 5.44121 75.3713 6.50291C77.3732 7.53512 78.9419 8.98021 80.0773 10.8382C81.2127 12.6962 81.7804 14.8048 81.7804 17.1641C81.7804 19.5235 81.2127 21.6321 80.0773 23.4901C78.9419 25.3481 77.3732 26.8079 75.3713 27.8696C73.3694 28.9018 71.0985 29.4179 68.5588 29.4179ZM68.5588 23.7555C70.3515 23.7555 71.8156 23.1657 72.951 21.986C74.1163 20.7769 74.699 19.1696 74.699 17.1641C74.699 15.1587 74.1163 13.5662 72.951 12.3865C71.8156 11.1773 70.3515 10.5728 68.5588 10.5728C66.766 10.5728 65.287 11.1773 64.1217 12.3865C62.9564 13.5662 62.3738 15.1587 62.3738 17.1641C62.3738 19.1696 62.9564 20.7769 64.1217 21.986C65.287 23.1657 66.766 23.7555 68.5588 23.7555Z" fill="#2559F2"/>
<path d="M93.1319 8.40512C93.9685 7.25495 95.089 6.38494 96.4933 5.79511C97.9275 5.20528 99.5709 4.91036 101.423 4.91036V11.2806C100.647 11.2216 100.124 11.1921 99.8547 11.1921C97.8528 11.1921 96.2841 11.7524 95.1487 12.8731C94.0133 13.9643 93.4456 15.6158 93.4456 17.8277V29.064H86.4538V5.26426H93.1319V8.40512Z" fill="#2559F2"/>
<path d="M121.965 27.9139C121.277 28.4152 120.426 28.7986 119.41 29.064C118.424 29.3 117.378 29.4179 116.272 29.4179C113.404 29.4179 111.178 28.6954 109.594 27.2503C108.041 25.8052 107.264 23.6818 107.264 20.8801V11.1036H103.544V5.79511H107.264V0H114.256V5.79511H120.261V11.1036H114.256V20.7916C114.256 21.7943 114.51 22.5759 115.018 23.1362C115.555 23.6671 116.302 23.9325 117.259 23.9325C118.364 23.9325 119.305 23.6376 120.082 23.0477L121.965 27.9139Z" fill="#2559F2"/>
<path d="M150.181 5.26426V25.0827C150.181 29.4474 149.061 32.6915 146.82 34.8149C144.579 36.9383 141.322 38 137.049 38C134.778 38 132.627 37.7198 130.595 37.1595C128.593 36.5991 126.905 35.7881 125.531 34.7264L128.31 29.7718C129.325 30.5976 130.565 31.2464 132.03 31.7183C133.494 32.1901 134.973 32.4261 136.467 32.4261C138.797 32.4261 140.5 31.8952 141.576 30.8335C142.652 29.7718 143.189 28.1498 143.189 25.9674V25.1711C142.293 26.0559 141.232 26.7342 140.007 27.2061C138.782 27.6779 137.468 27.9139 136.063 27.9139C132.896 27.9139 130.386 27.0291 128.534 25.2596C126.681 23.4606 125.755 20.7769 125.755 17.2084V5.26426H132.747V16.1909C132.747 20.0543 134.375 21.986 137.632 21.986C139.305 21.986 140.65 21.4552 141.666 20.3935C142.682 19.3023 143.189 17.695 143.189 15.5716V5.26426H150.181Z" fill="#2559F2"/>
<path d="M187.539 4.91036C190.557 4.91036 192.947 5.79511 194.71 7.56461C196.503 9.30462 197.399 11.9294 197.399 15.4389V29.064H190.407V16.5006C190.407 14.6131 190.004 13.2123 189.197 12.298C188.42 11.3543 187.3 10.8824 185.836 10.8824C184.192 10.8824 182.893 11.4133 181.937 12.475C180.98 13.5072 180.502 15.0555 180.502 17.1199V29.064H173.511V16.5006C173.511 12.7551 171.987 10.8824 168.939 10.8824C167.326 10.8824 166.041 11.4133 165.085 12.475C164.128 13.5072 163.65 15.0555 163.65 17.1199V29.064H156.659V5.26426H163.337V8.00698C164.233 7.00427 165.324 6.23748 166.608 5.70664C167.923 5.17579 169.357 4.91036 170.911 4.91036C172.614 4.91036 174.153 5.24952 175.527 5.92782C176.902 6.57664 178.007 7.53512 178.844 8.80326C179.83 7.56461 181.07 6.60613 182.564 5.92782C184.088 5.24952 185.746 4.91036 187.539 4.91036Z" fill="#2559F2"/>
<path d="M213.392 4.91036C217.127 4.91036 219.995 5.79511 221.997 7.56461C223.999 9.30462 225 11.9441 225 15.4831V29.064H218.456V26.1001C217.142 28.312 214.692 29.4179 211.106 29.4179C209.254 29.4179 207.64 29.1083 206.266 28.4889C204.921 27.8696 203.89 27.0144 203.173 25.9232C202.456 24.832 202.097 23.5933 202.097 22.2072C202.097 19.9953 202.934 18.2553 204.607 16.9872C206.31 15.7191 208.925 15.085 212.451 15.085H218.008C218.008 13.5809 217.545 12.4307 216.619 11.6345C215.693 10.8087 214.303 10.3958 212.451 10.3958C211.166 10.3958 209.896 10.6023 208.641 11.0151C207.416 11.3985 206.37 11.9294 205.504 12.6077L202.994 7.7858C204.309 6.87155 205.877 6.16375 207.7 5.6624C209.552 5.16104 211.45 4.91036 213.392 4.91036ZM212.854 24.773C214.049 24.773 215.11 24.5076 216.036 23.9767C216.962 23.4164 217.62 22.6054 218.008 21.5437V19.1106H213.213C210.344 19.1106 208.91 20.0396 208.91 21.8976C208.91 22.7823 209.254 23.4901 209.941 24.021C210.658 24.5223 211.629 24.773 212.854 24.773Z" fill="#2559F2"/>
</svg>
