<svg width="18" height="18" viewBox="0 0 18 18" fill="none" xmlns="http://www.w3.org/2000/svg">
<path fill-rule="evenodd" clip-rule="evenodd" d="M5.3775 3L6.75 1.5H11.25L12.6225 3H15C15.825 3 16.5 3.675 16.5 4.5V13.5C16.5 14.325 15.825 15 15 15H3C2.175 15 1.5 14.325 1.5 13.5V4.5C1.5 3.675 2.175 3 3 3H5.3775ZM5.25 9C5.25 11.07 6.93 12.75 9 12.75C11.07 12.75 12.75 11.07 12.75 9C12.75 6.93 11.07 5.25 9 5.25C6.93 5.25 5.25 6.93 5.25 9ZM11.3999 9.00004C11.3999 10.3255 10.3253 11.4 8.99985 11.4C7.67437 11.4 6.59985 10.3255 6.59985 9.00004C6.59985 7.67455 7.67437 6.60004 8.99985 6.60004C10.3253 6.60004 11.3999 7.67455 11.3999 9.00004Z" />
</svg>
