<svg width="24" height="24" viewBox="0 0 24 24" fill="none" xmlns="http://www.w3.org/2000/svg">
<path d="M0 9.54541H3.2727V13.9089H0V9.54541Z" />
<path d="M14.1818 11.7274C14.1803 11.2451 14.0189 10.7767 13.7228 10.3959C13.4266 10.0151 13.0126 9.7432 12.5454 9.62305V13.8319C13.0126 13.7117 13.4266 13.4398 13.7228 13.059C14.0189 12.6782 14.1803 12.2098 14.1818 11.7275V11.7274Z" />
<path d="M11.4544 14.9449C10.4304 14.7745 9.54843 14.1269 9.07945 13.2006C8.61066 12.2745 8.61066 11.1802 9.07945 10.2541C9.54843 9.32785 10.4304 8.68023 11.4544 8.50982V3H0.545512C0.400868 3 0.262073 3.05735 0.159801 3.1598C0.057347 3.26207 0 3.40087 0 3.54551V8.45456H3.81821C3.96286 8.45456 4.10165 8.5119 4.20392 8.61418C4.30638 8.71645 4.36372 8.85524 4.36372 9.00007V14.4543C4.36372 14.5991 4.30638 14.7379 4.20392 14.8401C4.10165 14.9424 3.96286 14.9998 3.81821 14.9998H0V19.9088C0 20.0535 0.057347 20.1922 0.159801 20.2945C0.262073 20.397 0.400868 20.4543 0.545512 20.4543H11.4544V14.9449Z" />
<path d="M20.7271 9.54541H23.9998V13.9089H20.7271V9.54541Z" />
<path d="M9.81836 11.7275C9.81982 12.2098 9.98127 12.6783 10.2773 13.059C10.5735 13.4398 10.9875 13.7117 11.4547 13.8319V9.62305C10.9876 9.74322 10.5735 10.0151 10.2773 10.3959C9.98127 10.7767 9.81982 11.2451 9.81836 11.7274V11.7275Z" />
<path d="M20.1815 15.0003C20.0369 15.0003 19.8981 14.9429 19.7958 14.8407C19.6934 14.7384 19.636 14.5996 19.636 14.4548V9.00058C19.636 8.85575 19.6934 8.71695 19.7958 8.61468C19.8981 8.51241 20.0369 8.45506 20.1815 8.45506H23.9997V3.546C23.9997 3.40136 23.9424 3.26256 23.8399 3.16029C23.7377 3.05784 23.5989 3.00049 23.4542 3.00049H12.5454V8.51033C13.5694 8.68072 14.4513 9.32831 14.9203 10.2546C15.3891 11.1808 15.3891 12.2751 14.9203 13.2011C14.4513 14.1274 13.5694 14.775 12.5454 14.9454V20.4553H23.4542C23.5989 20.4553 23.7377 20.3979 23.8399 20.2955C23.9424 20.1932 23.9997 20.0544 23.9997 19.9098V15.0007L20.1815 15.0003Z" />
</svg>
